<svg width="16" height="16" viewBox="0 0 16 16" fill="none" xmlns="http://www.w3.org/2000/svg">
<path d="M8.66659 14.6666H3.33325C1.99992 14.6666 1.33325 13.9999 1.33325 12.6666V7.33325C1.33325 5.99992 1.99992 5.33325 3.33325 5.33325H6.66659V12.6666C6.66659 13.9999 7.33325 14.6666 8.66659 14.6666Z" stroke="#979797" stroke-miterlimit="10" stroke-linecap="round" stroke-linejoin="round"/>
<path d="M6.73991 2.66675C6.68658 2.86675 6.66659 3.08675 6.66659 3.33341V5.33341H3.33325V4.00008C3.33325 3.26675 3.93325 2.66675 4.66659 2.66675H6.73991Z" stroke="#979797" stroke-miterlimit="10" stroke-linecap="round" stroke-linejoin="round"/>
<path d="M9.33325 5.33325V8.66659" stroke="#979797" stroke-miterlimit="10" stroke-linecap="round" stroke-linejoin="round"/>
<path d="M12 5.33325V8.66659" stroke="#979797" stroke-miterlimit="10" stroke-linecap="round" stroke-linejoin="round"/>
<path d="M11.3333 11.3333H9.99992C9.63325 11.3333 9.33325 11.6333 9.33325 11.9999V14.6666H11.9999V11.9999C11.9999 11.6333 11.6999 11.3333 11.3333 11.3333Z" stroke="#979797" stroke-miterlimit="10" stroke-linecap="round" stroke-linejoin="round"/>
<path d="M4 8.66675V11.3334" stroke="#979797" stroke-miterlimit="10" stroke-linecap="round" stroke-linejoin="round"/>
<path d="M6.66675 12.6666V3.33325C6.66675 1.99992 7.33341 1.33325 8.66675 1.33325H12.6667C14.0001 1.33325 14.6667 1.99992 14.6667 3.33325V12.6666C14.6667 13.9999 14.0001 14.6666 12.6667 14.6666H8.66675C7.33341 14.6666 6.66675 13.9999 6.66675 12.6666Z" stroke="#979797" stroke-miterlimit="10" stroke-linecap="round" stroke-linejoin="round"/>
</svg>
