<svg width="23" height="23" viewBox="0 0 23 23" fill="none" xmlns="http://www.w3.org/2000/svg">
<path fill-rule="evenodd" clip-rule="evenodd" d="M22.2544 19.1775C22.3744 17.544 22.5004 14.95 22.5004 11.25C22.5004 7.55 22.3744 4.956 22.2544 3.3225C22.1344 1.684 20.8869 0.396 19.2384 0.255C17.7454 0.127 15.4549 0 12.2504 0C9.04594 0 6.75494 0.127 5.26244 0.255C3.61394 0.396 2.36694 1.684 2.24644 3.3225C2.23111 3.5325 2.21561 3.75833 2.19994 4C1.93894 4.0005 1.69994 4.005 1.48744 4.011C0.703442 4.034 0.0339417 4.551 0.00594171 5.3885C-0.00198057 5.62944 -0.00198057 5.87056 0.00594171 6.1115C0.0339417 6.949 0.703442 7.466 1.48744 7.489C1.65844 7.494 1.84511 7.49733 2.04744 7.499C2.0302 8.16623 2.01786 8.83359 2.01044 9.501C1.82211 9.503 1.64777 9.50633 1.48744 9.511C0.703442 9.534 0.0339417 10.051 0.00594171 10.8885C-0.00198057 11.1294 -0.00198057 11.3706 0.00594171 11.6115C0.0339417 12.449 0.703442 12.966 1.48744 12.989C1.64777 12.9937 1.82211 12.997 2.01044 12.999C2.01878 13.7157 2.03128 14.3828 2.04794 15.0005C1.84494 15.0025 1.65811 15.006 1.48744 15.011C0.703442 15.034 0.0339417 15.551 0.00594171 16.3885C-0.00198057 16.6294 -0.00198057 16.8706 0.00594171 17.1115C0.0339417 17.949 0.703442 18.466 1.48744 18.489C1.69994 18.495 1.93894 18.499 2.19994 18.5C2.21528 18.742 2.23078 18.9678 2.24644 19.1775C2.36644 20.816 3.61394 22.104 5.26244 22.245C6.75494 22.3725 9.04594 22.5 12.2504 22.5C15.4549 22.5 17.7459 22.373 19.2384 22.245C20.8869 22.104 22.1339 20.816 22.2544 19.1775ZM15.2509 9.25C15.251 9.75607 15.123 10.2539 14.8789 10.6972C14.6349 11.1406 14.2826 11.5149 13.8549 11.7855C15.2759 12.3065 16.3634 13.493 16.7199 14.956C16.8749 15.597 16.5004 16.206 15.8629 16.3735C15.1504 16.5615 13.9969 16.75 12.2354 16.75C10.4739 16.75 9.32044 16.5615 8.60794 16.3735C7.97044 16.2055 7.59544 15.597 7.75144 14.9565C8.10894 13.4865 9.20494 12.2955 10.6354 11.7785C10.1965 11.4981 9.83807 11.1082 9.59552 10.6472C9.35297 10.1863 9.23463 9.67006 9.25214 9.14947C9.26965 8.62887 9.4224 8.1218 9.69538 7.67816C9.96835 7.23452 10.3521 6.8696 10.809 6.61931C11.2658 6.36903 11.7799 6.242 12.3007 6.25073C12.8215 6.25945 13.3311 6.40364 13.7793 6.6691C14.2275 6.93455 14.5988 7.31213 14.8568 7.76466C15.1147 8.2172 15.2509 8.72911 15.2509 9.25Z" fill="#494949"/>
</svg>
